<mxfile host="app.diagrams.net" modified="2023-11-30T22:02:34.840Z" agent="Mozilla/5.0 (Windows NT 10.0; Win64; x64) AppleWebKit/537.36 (KHTML, like Gecko) Chrome/119.0.0.0 Safari/537.36 Edg/119.0.0.0" etag="HT_FDVeMRDsZDb6Q8VEo" version="22.1.5" type="device">
  <diagram name="Page-1" id="Fwdr6p3sFzub2-wpzpE_">
    <mxGraphModel dx="1852" dy="577" grid="1" gridSize="10" guides="1" tooltips="1" connect="1" arrows="1" fold="1" page="1" pageScale="1" pageWidth="850" pageHeight="1100" math="0" shadow="0">
      <root>
        <mxCell id="0" />
        <mxCell id="1" parent="0" />
        <object label="" id="PWBGoijjpDa2dbcxvJKg-1">
          <mxCell style="ellipse;html=1;shape=startState;fillColor=#000000;strokeColor=#ff0000;" vertex="1" parent="1">
            <mxGeometry x="80" y="40" width="30" height="30" as="geometry" />
          </mxCell>
        </object>
        <mxCell id="PWBGoijjpDa2dbcxvJKg-2" value="" style="edgeStyle=orthogonalEdgeStyle;html=1;verticalAlign=bottom;endArrow=open;endSize=8;strokeColor=#ff0000;rounded=0;entryX=0.38;entryY=-0.02;entryDx=0;entryDy=0;entryPerimeter=0;" edge="1" source="PWBGoijjpDa2dbcxvJKg-1" parent="1" target="PWBGoijjpDa2dbcxvJKg-3">
          <mxGeometry relative="1" as="geometry">
            <mxPoint x="95" y="130" as="targetPoint" />
          </mxGeometry>
        </mxCell>
        <mxCell id="PWBGoijjpDa2dbcxvJKg-3" value="idle" style="rounded=1;whiteSpace=wrap;html=1;arcSize=40;fontColor=#000000;fillColor=#ffffc0;strokeColor=#ff0000;" vertex="1" parent="1">
          <mxGeometry x="50" y="150" width="120" height="40" as="geometry" />
        </mxCell>
        <mxCell id="PWBGoijjpDa2dbcxvJKg-4" value="" style="edgeStyle=orthogonalEdgeStyle;html=1;verticalAlign=bottom;endArrow=open;endSize=8;strokeColor=#ff0000;rounded=0;" edge="1" source="PWBGoijjpDa2dbcxvJKg-3" parent="1" target="PWBGoijjpDa2dbcxvJKg-5">
          <mxGeometry relative="1" as="geometry">
            <mxPoint x="95" y="230" as="targetPoint" />
          </mxGeometry>
        </mxCell>
        <mxCell id="PWBGoijjpDa2dbcxvJKg-5" value="transmiting" style="rounded=1;whiteSpace=wrap;html=1;arcSize=40;fontColor=#000000;fillColor=#ffffc0;strokeColor=#ff0000;" vertex="1" parent="1">
          <mxGeometry x="-10" y="340" width="120" height="40" as="geometry" />
        </mxCell>
        <mxCell id="PWBGoijjpDa2dbcxvJKg-6" value="" style="edgeStyle=orthogonalEdgeStyle;html=1;verticalAlign=bottom;endArrow=open;endSize=8;strokeColor=#ff0000;rounded=0;" edge="1" source="PWBGoijjpDa2dbcxvJKg-5" parent="1">
          <mxGeometry relative="1" as="geometry">
            <mxPoint x="150" y="190" as="targetPoint" />
          </mxGeometry>
        </mxCell>
        <mxCell id="PWBGoijjpDa2dbcxvJKg-9" value="" style="rounded=1;whiteSpace=wrap;html=1;fillColor=#FFFF99;strokeColor=#d6b656;" vertex="1" parent="1">
          <mxGeometry x="250" y="120" width="450" height="270" as="geometry" />
        </mxCell>
        <mxCell id="PWBGoijjpDa2dbcxvJKg-12" value="" style="ellipse;html=1;shape=startState;fillColor=#000000;strokeColor=#ff0000;" vertex="1" parent="1">
          <mxGeometry x="290" y="140" width="30" height="30" as="geometry" />
        </mxCell>
        <mxCell id="PWBGoijjpDa2dbcxvJKg-13" value="" style="edgeStyle=orthogonalEdgeStyle;html=1;verticalAlign=bottom;endArrow=open;endSize=8;strokeColor=#ff0000;rounded=0;" edge="1" source="PWBGoijjpDa2dbcxvJKg-12" parent="1" target="PWBGoijjpDa2dbcxvJKg-14">
          <mxGeometry relative="1" as="geometry">
            <mxPoint x="305" y="230" as="targetPoint" />
          </mxGeometry>
        </mxCell>
        <mxCell id="PWBGoijjpDa2dbcxvJKg-14" value="receptionsit&lt;br&gt;" style="rounded=1;whiteSpace=wrap;html=1;arcSize=40;fontColor=#000000;fillColor=#ffffc0;strokeColor=#ff0000;" vertex="1" parent="1">
          <mxGeometry x="380" y="150" width="120" height="40" as="geometry" />
        </mxCell>
        <mxCell id="PWBGoijjpDa2dbcxvJKg-15" value="" style="edgeStyle=orthogonalEdgeStyle;html=1;verticalAlign=bottom;endArrow=open;endSize=8;strokeColor=#ff0000;rounded=0;" edge="1" source="PWBGoijjpDa2dbcxvJKg-14" parent="1" target="PWBGoijjpDa2dbcxvJKg-16">
          <mxGeometry relative="1" as="geometry">
            <mxPoint x="440" y="250" as="targetPoint" />
          </mxGeometry>
        </mxCell>
        <mxCell id="PWBGoijjpDa2dbcxvJKg-16" value="processing" style="rounded=1;whiteSpace=wrap;html=1;arcSize=40;fontColor=#000000;fillColor=#ffffc0;strokeColor=#ff0000;" vertex="1" parent="1">
          <mxGeometry x="550" y="190" width="120" height="40" as="geometry" />
        </mxCell>
        <mxCell id="PWBGoijjpDa2dbcxvJKg-17" value="" style="edgeStyle=orthogonalEdgeStyle;html=1;verticalAlign=bottom;endArrow=open;endSize=8;strokeColor=#ff0000;rounded=0;entryX=1;entryY=0.5;entryDx=0;entryDy=0;" edge="1" source="PWBGoijjpDa2dbcxvJKg-16" parent="1" target="PWBGoijjpDa2dbcxvJKg-18">
          <mxGeometry relative="1" as="geometry">
            <mxPoint x="610" y="290" as="targetPoint" />
          </mxGeometry>
        </mxCell>
        <mxCell id="PWBGoijjpDa2dbcxvJKg-18" value="allotment" style="rounded=1;whiteSpace=wrap;html=1;arcSize=40;fontColor=#000000;fillColor=#ffffc0;strokeColor=#ff0000;" vertex="1" parent="1">
          <mxGeometry x="480" y="330" width="120" height="40" as="geometry" />
        </mxCell>
        <mxCell id="PWBGoijjpDa2dbcxvJKg-19" value="" style="edgeStyle=orthogonalEdgeStyle;html=1;verticalAlign=bottom;endArrow=open;endSize=8;strokeColor=#ff0000;rounded=0;" edge="1" source="PWBGoijjpDa2dbcxvJKg-18" parent="1" target="PWBGoijjpDa2dbcxvJKg-20">
          <mxGeometry relative="1" as="geometry">
            <mxPoint x="540" y="430" as="targetPoint" />
          </mxGeometry>
        </mxCell>
        <mxCell id="PWBGoijjpDa2dbcxvJKg-20" value="payment" style="rounded=1;whiteSpace=wrap;html=1;arcSize=40;fontColor=#000000;fillColor=#ffffc0;strokeColor=#ff0000;" vertex="1" parent="1">
          <mxGeometry x="330" y="300" width="120" height="40" as="geometry" />
        </mxCell>
        <mxCell id="PWBGoijjpDa2dbcxvJKg-21" value="" style="edgeStyle=orthogonalEdgeStyle;html=1;verticalAlign=bottom;endArrow=open;endSize=8;strokeColor=#ff0000;rounded=0;entryX=1;entryY=0.5;entryDx=0;entryDy=0;" edge="1" source="PWBGoijjpDa2dbcxvJKg-20" parent="1" target="PWBGoijjpDa2dbcxvJKg-22">
          <mxGeometry relative="1" as="geometry">
            <mxPoint x="390" y="400" as="targetPoint" />
          </mxGeometry>
        </mxCell>
        <mxCell id="PWBGoijjpDa2dbcxvJKg-22" value="check-in" style="rounded=1;whiteSpace=wrap;html=1;arcSize=40;fontColor=#000000;fillColor=#ffffc0;strokeColor=#ff0000;" vertex="1" parent="1">
          <mxGeometry x="260" y="230" width="120" height="40" as="geometry" />
        </mxCell>
        <mxCell id="PWBGoijjpDa2dbcxvJKg-23" value="" style="edgeStyle=orthogonalEdgeStyle;html=1;verticalAlign=bottom;endArrow=open;endSize=8;strokeColor=#ff0000;rounded=0;entryX=1;entryY=0.75;entryDx=0;entryDy=0;" edge="1" source="PWBGoijjpDa2dbcxvJKg-22" parent="1" target="PWBGoijjpDa2dbcxvJKg-3">
          <mxGeometry relative="1" as="geometry">
            <mxPoint x="320" y="330" as="targetPoint" />
          </mxGeometry>
        </mxCell>
        <mxCell id="PWBGoijjpDa2dbcxvJKg-27" value="" style="endArrow=classic;html=1;rounded=0;entryX=-0.012;entryY=0.182;entryDx=0;entryDy=0;fillColor=#f8cecc;strokeColor=#b85450;entryPerimeter=0;" edge="1" parent="1" target="PWBGoijjpDa2dbcxvJKg-9">
          <mxGeometry width="50" height="50" relative="1" as="geometry">
            <mxPoint x="150" y="150" as="sourcePoint" />
            <mxPoint x="200" y="100" as="targetPoint" />
          </mxGeometry>
        </mxCell>
        <mxCell id="PWBGoijjpDa2dbcxvJKg-28" value="inital state" style="text;strokeColor=none;align=center;fillColor=none;html=1;verticalAlign=middle;whiteSpace=wrap;rounded=0;" vertex="1" parent="1">
          <mxGeometry x="100" y="20" width="60" height="30" as="geometry" />
        </mxCell>
        <mxCell id="PWBGoijjpDa2dbcxvJKg-29" value="composite state" style="text;strokeColor=none;align=center;fillColor=none;html=1;verticalAlign=middle;whiteSpace=wrap;rounded=0;" vertex="1" parent="1">
          <mxGeometry x="430" y="120" width="90" height="30" as="geometry" />
        </mxCell>
      </root>
    </mxGraphModel>
  </diagram>
</mxfile>
